<?xml version="1.0"?>
<svg width="266" height="73" xmlns="http://www.w3.org/2000/svg" xmlns:svg="http://www.w3.org/2000/svg">
 <g class="layer">
  <title>Layer 1</title>
  <path d="m36.07,0c-7.14,0 -14.11,2.12 -20.04,6.08c-5.93,3.96 -10.55,9.59 -13.28,16.19c-2.73,6.59 -3.45,13.84 -2.06,20.83c1.39,7 4.83,13.43 9.87,18.47c5.05,5.05 11.47,8.48 18.47,9.87c7,1.39 14.25,0.68 20.84,-2.05c6.59,-2.73 12.22,-7.35 16.19,-13.28c3.96,-5.94 6.08,-12.91 6.08,-20.04l-18.04,0c0,3.56 -1.06,7.05 -3.04,10.02c-1.98,2.96 -4.8,5.27 -8.09,6.64c-3.3,1.36 -6.92,1.72 -10.42,1.03c-3.5,-0.7 -6.71,-2.42 -9.23,-4.94c-2.53,-2.52 -4.24,-5.74 -4.94,-9.23c-0.7,-3.5 -0.34,-7.13 1.03,-10.42c1.36,-3.3 3.67,-6.12 6.64,-8.1c2.96,-1.98 6.45,-3.04 10.02,-3.04l0,-18.03z" fill="white" id="svg_3"/>
  <path d="m36.07,0c-4.74,0 -9.43,0.93 -13.8,2.75c-4.38,1.81 -8.36,4.46 -11.71,7.81c-3.35,3.35 -6,7.33 -7.81,11.71c-1.82,4.37 -2.75,9.06 -2.75,13.8l18.03,0c0,-2.37 0.47,-4.72 1.38,-6.9c0.9,-2.19 2.23,-4.18 3.91,-5.85c1.67,-1.68 3.66,-3.01 5.85,-3.91c2.18,-0.91 4.53,-1.38 6.9,-1.38l0,-18.03z" fill="#5CE1E6" id="svg_4"/>
  <circle cx="36.07" cy="36.07" fill="#5CE1E6" id="svg_5" r="11.27"/>
  <path d="m47.34,36.07c0,-1.48 -0.29,-2.95 -0.86,-4.32c-0.57,-1.36 -1.4,-2.61 -2.44,-3.65c-1.05,-1.05 -2.29,-1.88 -3.66,-2.45c-1.37,-0.56 -2.83,-0.85 -4.31,-0.85c-1.48,0 -2.95,0.29 -4.32,0.85c-1.36,0.57 -2.61,1.4 -3.65,2.45c-1.05,1.04 -1.88,2.29 -2.45,3.65c-0.56,1.37 -0.85,2.84 -0.85,4.32l11.27,0l11.27,0z" fill="white" id="svg_6"/>
  <text fill="#ffffff" font-family="Serif" font-size="24" id="svg_9" style="cursor: move;" text-anchor="middle" transform="matrix(1.65734 0 0 1.60181 -112.411 -30.9559)" x="141" xml:space="preserve" y="46">Quick</text>
  <text fill="#00ffff" font-family="Serif" font-size="24" font-weight="bold" id="svg_10" text-anchor="middle" transform="matrix(1 0 0 1 0 0) matrix(2.21462 0 0 1.56205 -198.511 -13.8335)" x="187.43" xml:space="preserve" y="38.07">Pay</text>
 </g>
</svg>